<svg id="Capa_1" data-name="Capa 1" xmlns="http://www.w3.org/2000/svg" viewBox="0 0 132.28 127.89"><defs><style>.cls-1{fill:none;}</style></defs><path class="cls-1" d="M50.73,89.8c-.29.84-.68,2-1.12,3.45l1.14-3.45Z"/><polygon class="cls-1" points="80.65 89.8 80.65 89.8 80.65 89.81 80.65 89.8"/><path class="cls-1" d="M61.14,82.72H73l6.77,4.15v0L75.21,72.61c-9.67-28.87-18.83,0-18.83,0L52.17,85.47v0Z"/><path d="M122.23,47.21c-5-14.93-15.63-27.53-31.81-33.3C53.16,1.29,17.59,17.15,8.79,50.84c-4,15.17-1.26,31.3,6.49,44.94,8,14,19.82,27.06,27.5,16.45,1.57-1.88,4.82-12.58,6.82-19h0v0c.44-1.4.83-2.61,1.12-3.45h0l1.42-4.33,4.21-12.86s9.16-28.87,18.83,0l4.52,14.28.92,2.91h0l2.2,6.93h0c1.26,4,2.61,8.3,3.2,10.78,1.36,5.25,6.16,18.06,18.93,5.29.68-.68,1.33-1.35,2-2C123.09,93.79,129.72,69.42,122.23,47.21Z"/></svg>